# xmcd CD database file
#
# Track frame offsets:
#	150
#	13292
#	26617
#	37992
#	52952
#	66522
#	75940
#	87960
#	100142
#	111125
#	122640
#
# Disc length: 1772 seconds
#
# Revision: 0
# Processed by: cddbd v1.5.1PL2 Copyright (c) Steve Scherf et al.
# Submitted via: CDex 1.70beta2
#
DISCID=8306ea0b
DTITLE=Luiz Eca - Brazil 70
DYEAR=1900
DGENRE=Jazz
TTITLE0=Cantador
TTITLE1=Andanca
TTITLE2=Cantiga Por Luciana
TTITLE3=Pais Tropical
TTITLE4=Travessia
TTITLE5=Sa Marina
TTITLE6=O Sonho
TTITLE7=Oferenda
TTITLE8=Se Voce Pensa
TTITLE9=Zazueira
TTITLE10=Juliana
EXTD=
EXTT0=
EXTT1=
EXTT2=
EXTT3=
EXTT4=
EXTT5=
EXTT6=
EXTT7=
EXTT8=
EXTT9=
EXTT10=
PLAYORDER=
